<svg xmlns="http://www.w3.org/2000/svg">
	<defs>
		<style>
			:root svg:not(:target) {
				display: none;
			}
		</style>
	</defs>
    <svg id="download" viewBox="0 0 24 24">
        <path d="M6 21H18M12 3V17M12 17L17 12M12 17L7 12" stroke-width="2.5" stroke-linecap="round" stroke-linejoin="round"></path>
    </svg>
    <svg id="open-full" viewBox="0 0 24 24">
        <path d="M5 12V6C5 5.44772 5.44772 5 6 5H18C18.5523 5 19 5.44772 19 6V18C19 18.5523 18.5523 19 18 19H12M8.11111 12H12M12 12V15.8889M12 12L5 19" stroke-linecap="round" stroke-width="2.5" fill="none" stroke-linejoin="round"></path>
    </svg>
	<svg id="telegram" viewBox="0 0 48 48">
		<path d="M5.83,23.616c12.568-5.529,28.832-12.27,31.077-13.203c5.889-2.442,7.696-1.974,6.795,3.434 c-0.647,3.887-2.514,16.756-4.002,24.766c-0.883,4.75-2.864,5.313-5.979,3.258c-1.498-0.989-9.059-5.989-10.7-7.163 c-1.498-1.07-3.564-2.357-0.973-4.892c0.922-0.903,6.966-6.674,11.675-11.166c0.617-0.59-0.158-1.559-0.87-1.086 c-6.347,4.209-15.147,10.051-16.267,10.812c-1.692,1.149-3.317,1.676-6.234,0.838c-2.204-0.633-4.357-1.388-5.195-1.676 C1.93,26.43,2.696,24.995,5.83,23.616z"></path>
	</svg>
	<svg id="github" viewBox="0 0 30 30">
		<path d="M15,3C8.373,3,3,8.373,3,15c0,5.623,3.872,10.328,9.092,11.63C12.036,26.468,12,26.28,12,26.047v-2.051 c-0.487,0-1.303,0-1.508,0c-0.821,0-1.551-0.353-1.905-1.009c-0.393-0.729-0.461-1.844-1.435-2.526 c-0.289-0.227-0.069-0.486,0.264-0.451c0.615,0.174,1.125,0.596,1.605,1.222c0.478,0.627,0.703,0.769,1.596,0.769 c0.433,0,1.081-0.025,1.691-0.121c0.328-0.833,0.895-1.6,1.588-1.962c-3.996-0.411-5.903-2.399-5.903-5.098 c0-1.162,0.495-2.286,1.336-3.233C9.053,10.647,8.706,8.73,9.435,8c1.798,0,2.885,1.166,3.146,1.481C13.477,9.174,14.461,9,15.495,9 c1.036,0,2.024,0.174,2.922,0.483C18.675,9.17,19.763,8,21.565,8c0.732,0.731,0.381,2.656,0.102,3.594 c0.836,0.945,1.328,2.066,1.328,3.226c0,2.697-1.904,4.684-5.894,5.097C18.199,20.49,19,22.1,19,23.313v2.734 c0,0.104-0.023,0.179-0.035,0.268C23.641,24.676,27,20.236,27,15C27,8.373,21.627,3,15,3z"></path>
	</svg>
	<svg id="gitlab" viewBox="0 0 380 380">
		<path class="cls-1" d="M282.83,170.73l-.27-.69-26.14-68.22a6.81,6.81,0,0,0-2.69-3.24,7,7,0,0,0-8,.43,7,7,0,0,0-2.32,3.52l-17.65,54H154.29l-17.65-54A6.86,6.86,0,0,0,134.32,99a7,7,0,0,0-8-.43,6.87,6.87,0,0,0-2.69,3.24L97.44,170l-.26.69a48.54,48.54,0,0,0,16.1,56.1l.09.07.24.17,39.82,29.82,19.7,14.91,12,9.06a8.07,8.07,0,0,0,9.76,0l12-9.06,19.7-14.91,40.06-30,.1-.08A48.56,48.56,0,0,0,282.83,170.73Z"/>
	</svg>
	<svg id="codepen" viewBox="0 0 50 50">
		<path d="M 25 4 L 4 17.34375 L 4 32.652344 L 25 46 L 46 32.65625 L 46 17.34375 Z M 25 29.183594 L 19.066406 25.070313 L 25 21.023438 L 30.933594 25.070313 Z M 27 17.605469 L 27 9.949219 L 40.429688 18.484375 L 34.410156 22.65625 Z M 23 17.605469 L 15.589844 22.65625 L 9.570313 18.484375 L 23 9.949219 Z M 12.09375 25.042969 L 8 27.832031 L 8 22.203125 Z M 15.570313 27.453125 L 23 32.605469 L 23 40.050781 L 9.589844 31.527344 Z M 27 32.605469 L 34.429688 27.453125 L 40.410156 31.527344 L 27 40.050781 Z M 37.90625 25.042969 L 42 22.203125 L 42 27.832031 Z"></path>
	</svg>
	<svg id="eleventy" viewBox="0 0 1569.4 2186">
		<g stroke-miterlimit="10" stroke-width="28">
			<path d="m562.2 1410.1c-9 0-13.5-12-13.5-36.1v-595.1c0-11.5-2.3-16.9-7-16.2-28.4 7.2-42.7 10.8-43.1 10.8-7.9.7-11.8-7.2-11.8-23.7v-51.7c0-14.3 4.3-22.4 12.9-24.2l142.2-36.6c1.1-.3 2.7-.5 4.8-.5 7.9 0 11.8 8.4 11.8 25.3v712c0 24.1-4.7 36.1-14 36.1zm368.3 1.1c-14.4 0-26.8-1-37.4-3s-21.6-6.5-33.1-13.5-20.9-16.6-28.3-28.8-13.4-29.3-18-51.2-7-47.9-7-78.1v-276.2c0-7.2-2-10.8-5.9-10.8h-33.4c-9 0-13.5-8.6-13.5-25.8v-29.1c0-17.6 4.5-26.4 13.5-26.4h33.4c3.9 0 5.9-4.8 5.9-14.5l9.7-209.5c1.1-19 5.7-28.5 14-28.5h53.9c9 0 13.5 9.5 13.5 28.5v209.5c0 9.7 2.1 14.5 6.5 14.5h68.7c9 0 13.5 8.8 13.5 26.4v29.1c0 17.2-4.5 25.8-13.5 25.8h-68.9c-2.5 0-4.2.6-5.1 1.9-.9 1.2-1.3 4.2-1.3 8.9v277.9c0 20.8 1.3 38.2 4 52s6.6 24 11.8 30.4 10.4 10.8 15.6 12.9c5.2 2.2 11.6 3.2 19.1 3.2h38.2c9.7 0 14.5 6.7 14.5 19.9v32.3c0 14.7-5.2 22.1-15.6 22.1zm206.7 64.6c8.2 0 15.4-6.7 21.5-20.2s9.2-32.6 9.2-57.4c0-5.8-3.6-25.7-10.8-59.8l-105.6-438.9c-.7-5-1.1-9-1.1-11.9 0-12.9 2.7-19.4 8.1-19.4h65.2c5 0 9.1 1.7 12.4 5.1s5.8 10.3 7.5 20.7l70 370.5c1.4 4.3 2.3 6.5 2.7 6.5 1.4 0 2.2-2 2.2-5.9l54.9-369.5c1.4-10.8 3.7-18 6.7-21.8s6.9-5.7 11.6-5.7h45.2c6.1 0 9.2 7 9.2 21 0 3.2-.4 7.4-1.1 12.4l-95.9 499.3c-7.5 41.3-15.8 72.9-24.8 94.8s-19 36.8-30.2 44.7c-11.1 7.9-25.8 12-44.2 12.4h-5.4c-29.1 0-48.8-7.7-59.2-23.2-2.9-3.2-4.3-11.5-4.3-24.8 0-26.6 4.3-39.9 12.9-39.9.7 0 7.2 1.8 19.4 5.4 12.4 3.8 20.3 5.6 23.9 5.6z"></path>
			<path d="m291.2 1411.1c-9 0-13.5-12-13.5-36.1v-595.1c0-11.5-2.3-16.9-7-16.2-28.4 7.2-42.7 10.8-43.1 10.8-7.9.7-11.8-7.2-11.8-23.7v-51.7c0-14.3 4.3-22.4 12.9-24.2l142.3-36.7c1.1-.3 2.7-.5 4.8-.5 7.9 0 11.8 8.4 11.8 25.3v712c0 24.1-4.7 36.1-14 36.1z"></path>
		</g>
	</svg>
	<svg id="diagonal-arrow" viewBox="0 0 24 24">
		<rect width="24" height="24" transform="rotate(180 12 12)" opacity="0"/>
		<path d="M18 7.05a1 1 0 0 0-1-1L9 6a1 1 0 0 0 0 2h5.56l-8.27 8.29a1 1 0 0 0 0 1.42 1 1 0 0 0 1.42 0L16 9.42V15a1 1 0 0 0 1 1 1 1 0 0 0 1-1z"/>
	</svg>
	<svg id="unsplash" viewBox="0 0 24 24">
		<path d="M7.5 6.75V0h9v6.75h-9zm9 3.75H24V24H0V10.5h7.5v6.75h9V10.5z"/>
	</svg>
</svg>